<?xml version="1.0" standalone="no"?>
<!DOCTYPE svg PUBLIC "-//W3C//DTD SVG 20010904//EN"
 "http://www.w3.org/TR/2001/REC-SVG-20010904/DTD/svg10.dtd">
<svg version="1.0" xmlns="http://www.w3.org/2000/svg"
 width="600.000000pt" height="600.000000pt" viewBox="0 0 600.000000 600.000000"
 preserveAspectRatio="xMidYMid meet">
<metadata>
Created by potrace 1.14, written by Peter Selinger 2001-2017
</metadata>
<g transform="translate(0.000000,600.000000) scale(0.100000,-0.100000)"
fill="#000000" stroke="none">
<path d="M2790 5190 c-370 -22 -651 -85 -871 -196 -303 -152 -498 -358 -610
-644 -109 -277 -101 -597 21 -857 107 -230 292 -409 572 -558 229 -121 480
-207 923 -315 315 -77 430 -113 551 -170 108 -50 192 -128 237 -219 29 -59 32
-74 32 -156 0 -80 -3 -97 -31 -156 -59 -123 -189 -222 -344 -260 -83 -21 -338
-18 -420 4 -193 51 -341 170 -424 339 -42 85 -96 259 -96 312 -1 49 21 48
-634 7 -340 -22 -619 -41 -621 -43 -6 -7 26 -207 50 -305 75 -310 264 -628
480 -807 231 -190 587 -308 1040 -345 632 -52 1138 15 1506 199 323 162 581
452 698 783 129 367 96 764 -92 1083 -68 116 -225 276 -357 363 -280 186 -603
297 -1435 490 -266 62 -357 96 -429 162 -70 64 -91 115 -84 204 11 133 113
238 275 280 77 21 276 21 373 1 223 -46 365 -191 430 -439 21 -81 25 -87 49
-87 14 0 289 16 611 35 322 19 588 35 592 35 4 0 5 12 3 28 -50 304 -134 527
-267 703 -216 287 -569 455 -1078 513 -161 19 -477 27 -650 16z"/>
</g>
</svg>
